<?xml version="1.0" encoding="UTF-8"?>
<!DOCTYPE svg PUBLIC "-//W3C//DTD SVG 1.1//EN" "http://www.w3.org/Graphics/SVG/1.1/DTD/svg11.dtd">
<!-- Creator: CorelDRAW -->
<svg xmlns="http://www.w3.org/2000/svg" xml:space="preserve" width="22.805mm" height="3.7396mm" version="1.1" style="shape-rendering:geometricPrecision; text-rendering:geometricPrecision; image-rendering:optimizeQuality; fill-rule:evenodd; clip-rule:evenodd"
viewBox="0 0 438.75 71.95"
 xmlns:xlink="http://www.w3.org/1999/xlink"
 xmlns:xodm="http://www.corel.com/coreldraw/odm/2003">
 <defs>
  <style type="text/css">
   <![CDATA[
    .fil0 {fill:white;fill-rule:nonzero}
   ]]>
  </style>
 </defs>
 <g id="Capa_x0020_1">
  <metadata id="CorelCorpID_0Corel-Layer"/>
  <g id="_1644515804528">
   <path class="fil0" d="M107.95 36.53l0 -0.25c0,-0.65 0.53,-1.18 1.18,-1.18l12.6 0c0.65,0 1.18,0.53 1.18,1.18l0 15.69c0,0.65 -0.53,1.18 -1.18,1.18 -0.61,0 -1.12,-0.47 -1.17,-1.08l-0.18 -2.12c-0.09,-1.05 -1.39,-1.44 -2.08,-0.64 -2.57,3.02 -6.21,4.53 -10.94,4.53 -4.92,0 -8.85,-1.67 -11.81,-5.02 -2.98,-3.28 -4.48,-7.71 -4.48,-13.28 0,-5.48 1.46,-9.87 4.38,-13.18 2.89,-3.28 6.9,-4.92 12.05,-4.92 4.03,0 7.38,0.97 10.03,2.9 2.28,1.66 3.8,3.86 4.55,6.61 0.2,0.72 -0.3,1.45 -1.05,1.5l-0.48 0.03c-0.57,0.04 -1.07,-0.33 -1.22,-0.88 -0.6,-2.18 -1.81,-3.93 -3.62,-5.25 -2.07,-1.51 -4.75,-2.26 -8.07,-2.26 -4.23,0 -7.54,1.38 -9.94,4.13 -2.39,2.75 -3.59,6.56 -3.59,11.41 0,4.66 1.18,8.41 3.54,11.26 2.33,2.85 5.57,4.28 9.74,4.28 3.44,0 6.26,-0.98 8.46,-2.93 2.18,-1.93 3.53,-4.63 4.07,-8.09 0.01,-0.07 0.01,-0.13 0.01,-0.2l0 -1.09c0,-0.65 -0.53,-1.18 -1.18,-1.18l-9.65 0c-0.65,0 -1.18,-0.53 -1.18,-1.18z"/>
   <path class="fil0" d="M136.92 34.76l11.61 0c2.69,0 4.79,-0.63 6.3,-1.89 1.51,-1.26 2.26,-3.02 2.26,-5.29 0,-2.16 -0.68,-3.84 -2.04,-5.04 -1.36,-1.2 -3.29,-1.8 -5.78,-1.8l-12.34 0 0 14.02zm22.28 7.97l1.03 9.12c0.08,0.7 -0.47,1.31 -1.17,1.31l-0.63 0c-0.6,0 -1.1,-0.45 -1.17,-1.05l-0.92 -8.25c-0.26,-2.3 -0.96,-3.94 -2.09,-4.94 -1.13,-1 -3.01,-1.5 -5.63,-1.5l-11.7 0 0 14.56c0,0.65 -0.53,1.18 -1.18,1.18l-0.6 0c-0.65,0 -1.18,-0.53 -1.18,-1.18l0 -32.66c0,-0.65 0.53,-1.18 1.18,-1.18l14.61 0c3.18,0 5.71,0.83 7.57,2.48 1.87,1.66 2.8,3.89 2.8,6.71 0,2.33 -0.62,4.26 -1.85,5.8 -0.62,0.78 -1.37,1.42 -2.23,1.92 -0.79,0.46 -0.83,1.58 -0.04,2.04 1.81,1.08 2.87,2.95 3.19,5.63z"/>
   <path class="fil0" d="M193.46 50.84c-2.33,2 -5.56,3 -9.69,3 -4.13,0 -7.36,-1 -9.69,-3 -2.36,-1.97 -3.54,-4.97 -3.54,-9l0 -22.53c0,-0.65 0.53,-1.18 1.18,-1.18l0.6 0c0.65,0 1.18,0.53 1.18,1.18l0 22.63c0,6.16 3.42,9.25 10.28,9.25 6.85,0 10.28,-3.08 10.28,-9.25l0 -22.63c0,-0.65 0.53,-1.18 1.18,-1.18l0.59 0c0.65,0 1.18,0.53 1.18,1.18l0 22.53c0,4.03 -1.18,7.03 -3.54,9z"/>
   <path class="fil0" d="M211.01 35.35l10.77 0c2.59,0 4.59,-0.64 6,-1.92 1.41,-1.28 2.11,-3.11 2.11,-5.51 0,-2.33 -0.71,-4.11 -2.14,-5.34 -1.43,-1.23 -3.39,-1.85 -5.88,-1.85l-10.87 0 0 14.61zm-2.95 -16.03c0,-0.65 0.53,-1.18 1.18,-1.18l12.79 0c3.38,0 6.03,0.85 7.97,2.56 1.93,1.7 2.9,4.11 2.9,7.23 0,3.21 -0.98,5.69 -2.95,7.43 -1.97,1.74 -4.72,2.61 -8.26,2.61l-10.67 0 0 14.02c0,0.65 -0.53,1.18 -1.18,1.18l-0.6 0c-0.65,0 -1.18,-0.53 -1.18,-1.18l0 -32.66z"/>
   <path class="fil0" d="M256.39 51.18c4.03,0 7.26,-1.43 9.69,-4.28 2.43,-2.82 3.64,-6.57 3.64,-11.26 0,-4.65 -1.21,-8.39 -3.64,-11.21 -2.46,-2.82 -5.69,-4.23 -9.69,-4.23 -4,0 -7.21,1.41 -9.64,4.23 -2.43,2.82 -3.64,6.56 -3.64,11.21 0,4.66 1.23,8.41 3.69,11.26 2.43,2.85 5.62,4.28 9.59,4.28zm0 2.71c-4.85,0 -8.79,-1.7 -11.8,-5.11 -3.02,-3.41 -4.52,-7.79 -4.52,-13.13 0,-5.31 1.51,-9.67 4.52,-13.08 2.98,-3.38 6.92,-5.07 11.8,-5.07 4.95,0 8.92,1.69 11.9,5.07 2.98,3.38 4.48,7.74 4.48,13.08 0,5.38 -1.49,9.76 -4.48,13.13 -3.02,3.41 -6.98,5.11 -11.9,5.11z"/>
   <path class="fil0" d="M302.74 44.44c-1.41,1.75 -3.8,2.63 -7.18,2.63l-5.66 0 0 -22.97 4.67 0c3.83,0 6.52,0.89 8.07,2.66 1.48,1.84 2.21,4.82 2.21,8.95 0,4.07 -0.71,6.97 -2.11,8.73zm-7.23 -26.24l-11.57 0c-0.73,0 -1.32,0.59 -1.32,1.32l0 32.39c0,0.73 0.59,1.32 1.32,1.32l12.55 0c5.15,0 9.04,-1.53 11.68,-4.58 2.64,-3.05 3.96,-7.36 3.96,-12.93 0,-11.67 -5.54,-17.51 -16.62,-17.51z"/>
   <path class="fil0" d="M328.27 18.2l-4.65 0c-0.73,0 -1.31,0.59 -1.31,1.32l0 32.38c0,0.73 0.59,1.32 1.31,1.32l4.65 0c0.73,0 1.32,-0.59 1.32,-1.32l0 -32.38c0,-0.73 -0.59,-1.32 -1.32,-1.32z"/>
   <path class="fil0" d="M364.42 46.73l-14.43 0c-0.73,0 -1.32,-0.59 -1.32,-1.32l0 -25.89c0,-0.73 -0.59,-1.32 -1.32,-1.32l-4.65 0c-0.73,0 -1.32,0.59 -1.32,1.32l0 32.38c0,0.73 0.59,1.32 1.32,1.32l21.71 0c0.73,0 1.32,-0.59 1.32,-1.32l0 -3.86c0,-0.73 -0.59,-1.32 -1.32,-1.32z"/>
   <path class="fil0" d="M399.39 18.2l-4.65 0c-0.73,0 -1.32,0.59 -1.32,1.32l0 23.03c0,3.67 -2.1,5.51 -6.3,5.51 -4.23,0 -6.34,-1.84 -6.34,-5.51l0 -23.03c0,-0.73 -0.59,-1.32 -1.32,-1.32l-4.65 0c-0.73,0 -1.32,0.59 -1.32,1.32l0 22.93c0,3.8 1.2,6.74 3.59,8.8 2.36,2.07 5.69,3.1 9.98,3.1 4.3,0 7.64,-1.03 10.03,-3.1 2.39,-2.06 3.59,-5 3.59,-8.8l0 -22.93c0,-0.73 -0.59,-1.32 -1.32,-1.32z"/>
   <path class="fil0" d="M429.21 33.25l-6.98 -1.72c-2.72,-0.69 -4.08,-2 -4.08,-3.93 0,-1.25 0.52,-2.26 1.57,-3.05 1.05,-0.79 2.46,-1.18 4.23,-1.18 1.97,0 3.59,0.49 4.87,1.48 1.04,0.79 1.73,1.84 2.07,3.12 0.15,0.57 0.68,0.96 1.26,0.96l4.52 0c0.82,0 1.44,-0.74 1.3,-1.55 -0.49,-2.74 -1.81,-5.01 -3.94,-6.81 -2.53,-2.1 -5.9,-3.15 -10.13,-3.15 -4.23,0 -7.46,1.07 -9.69,3.2 -2.26,2.13 -3.39,4.72 -3.39,7.77 0,2.46 0.74,4.53 2.24,6.2 1.49,1.67 3.62,2.85 6.37,3.54l6.44 1.62c1.93,0.49 3.31,1.04 4.13,1.65 0.82,0.61 1.23,1.48 1.23,2.63 0,1.38 -0.57,2.45 -1.72,3.22 -1.15,0.77 -2.72,1.16 -4.72,1.16 -2.33,0 -4.16,-0.53 -5.51,-1.57 -1.09,-0.85 -1.77,-1.99 -2.04,-3.42 -0.12,-0.61 -0.66,-1.05 -1.29,-1.05l-4.55 0c-0.79,0 -1.41,0.7 -1.31,1.49 0.38,3.04 1.72,5.48 4,7.32 2.64,2.13 6.22,3.2 10.75,3.2 4.33,0 7.73,-0.99 10.2,-2.95 2.48,-1.97 3.71,-4.66 3.71,-8.07 0,-5.18 -3.18,-8.54 -9.54,-10.08z"/>
   <path class="fil0" d="M65.87 54.7l-0.01 0.02c-7.95,12.78 -20.37,15.41 -33.5,15.8l9.69 -29.6 26 -20c5.21,10.52 4.34,24.07 -2.17,33.77zm-44.77 15.79c-1.02,-0.02 -2.05,-0.04 -3.08,-0.05l-5.36 -6.92 13.81 -10.62 4.15 17.66c-3.16,0.05 -6.35,-0.01 -9.52,-0.07zm-7.79 -0.09l-0 0c-3.45,0 -6.11,-0.39 -8.02,-1.21l6.29 -4.83 4.69 6.06c-0.78,-0.01 -1.56,-0.01 -2.33,-0.01 -0.21,0 -0.42,0 -0.62,0zm-11.76 -6.6c-0.01,-0.61 -0.01,-5.79 -0.02,-12.4l9.2 11.87 -6.77 5.21c-1.6,-1.08 -2.39,-2.63 -2.41,-4.68zm7.35 -62.42c0.75,0 2.81,0 5.48,0l7.16 30.5 -20.01 5.44c-0.01,-8.32 -0.02,-15.55 -0.03,-16.81 0.05,-1.25 0.01,-2.66 -0.04,-4.15 -0.21,-6.9 -0.45,-14.71 7.45,-14.98zm28.05 0l0.01 0c5.24,0 10.49,1.22 15.18,3.52 0.08,0.04 0.14,0.07 0.21,0.11l-6.64 20.3 -22.85 6.22 -7.08 -30.14c7.59,-0 18.78,0 21.16,0zm9.84 25.05l18.33 -4.98 -22.31 17.16 3.98 -12.17zm-45.26 20.88c-0,-2.83 -0,-5.74 -0.01,-8.57l20.33 -5.53 4.27 18.21 -14.3 11 -10.29 -13.28c-0,-0.6 -0,-1.22 -0,-1.83zm38.58 -4.9l-8.55 26.13 -3.89 -16.57 12.44 -9.57zm-12.79 8.1l-4.14 -17.65 22.02 -5.99 -4.33 13.23 -13.55 10.42zm39.94 -31.13c0.01,0.02 0.02,0.03 0.03,0.05l-19.99 5.44 6.29 -19.22c5.7,3.15 10.55,8.02 13.67,13.73zm1.96 0.8c-0.26,-0.53 -0.5,-1 -0.75,-1.46 -3.27,-5.99 -8.37,-11.09 -14.35,-14.35 -0.4,-0.22 -0.84,-0.44 -1.37,-0.7 -4.88,-2.4 -10.33,-3.66 -15.79,-3.66l-0.01 0 -7.98 0 -6.26 0c-6.23,0 -12.39,0 -13.84,0 -7.8,0.26 -8.85,6.86 -8.86,12.99l0 0.2c0,1.1 0.03,2.18 0.07,3.21 0.05,1.47 0.09,2.86 0.04,4.09 0.02,1.78 0.03,15.09 0.04,26.82 0,0.78 0,1.54 0,2.29l-0.01 0 0.01 0.01c0.01,7.45 0.01,13.53 0.02,14.19 0.09,7.96 9.91,7.96 13.14,7.96 2.57,-0.01 5.21,0.04 7.76,0.09 2.38,0.04 4.77,0.09 7.15,0.09 15,0 29.63,-1.77 38.8,-16.5 6.81,-10.14 7.69,-24.32 2.19,-35.28z"/>
  </g>
 </g>
</svg>


